<svg id="Layer_1" data-name="Layer 1" xmlns="http://www.w3.org/2000/svg" viewBox="0 0 768 768"><defs><style>.cls-1{fill:#fd6905;}.cls-2{fill:#fefefe;}.cls-3{fill:#022147;}.cls-4{fill:#012147;}.cls-5{fill:#032248;}.cls-6{fill:#4b4a55;}.cls-7{fill:#022247;}.cls-8{fill:#24344d;}.cls-9{fill:#394153;}</style></defs><path class="cls-1" d="M1343.91,540q0,189.71.09,379.41c0,3.75-.84,4.59-4.59,4.59q-379.41-.15-758.82,0c-3.75,0-4.59-.84-4.59-4.59q.15-379.41,0-758.82c0-3.75.84-4.59,4.59-4.59q379.41.15,758.82,0c3.75,0,4.59.84,4.59,4.59Q1343.84,350.29,1343.91,540Z" transform="translate(-576 -156)"/><path class="cls-2" d="M1256.64,357.4c-.05,18.48-.32,37-.07,55.43.17,12.49-.21,25-.21,37.44q-.09,173.64,0,347.29a37.73,37.73,0,0,0,0,5c.65,5-1.1,8-6.47,8.13-1.47,2.09-3.73,2-5.87,2q-56.21.08-112.4,0c-7.53,0-10.1-2.92-10.48-10.87-1-22.13-2.69-44.17-7.92-65.81-10.68-44.15-30-83.79-60.18-118a214.69,214.69,0,0,0-61.59-48.58A171.39,171.39,0,0,0,969,559.92c-2.58-.91-4.88-.35-7.28.49-23,8-43.15,20.6-61.52,36.39C885,609.88,872,625,859.78,640.8c-3,3.58-5.15,7.76-8.33,11.19-21.37,34.52-34.31,72-39.62,112.2-1.61,12.22-2.07,24.48-2.47,36.75-.25,7.64-1.11,9-6.76,10.11-2.06,1.7-4.5,1.92-7.06,1.92q-54,0-108,0a27.69,27.69,0,0,1-5-.35c-6.6-1.2-8.48-3.3-8.52-10.1-.1-18.33,0-36.66,0-55q0-145.71,0-291.42c0-13.31-1.87-26.62-.83-39.92,1.72-22,.45-43.95.84-65.92.14-7.89-.25-8.13-8.13-8.16-9.83,0-19.67.13-29.49-.08-5.44-.12-6.79-1.61-6.43-6.24,1.4-3,4-3,6.8-3,16.33,0,32.65-.11,49-.11H1246.5c16.49,0,33,.09,49.48.13,2,0,4.11-.06,5.32,2s.21,3.81-1.21,5.37c-2.2,1.86-4.85,1.95-7.55,1.94-9.49,0-19-.06-28.48,0-5.43.05-6,.65-6.11,6C1257.88,351.27,1258.24,354.47,1256.64,357.4Z" transform="translate(-576 -156)"/><path class="cls-3" d="M1304.54,283c-1.39,6.45-5.41,11.71-8,17.61-.75,1.7-2.39,1.53-3.89,1.55-6.16.11-12.32.32-18.47.32q-321.24,0-642.48,0c-4.16,0-8.33.06-12.49-.17-4.64-.25-6.58-3.23-4.83-7.51,1.51-3.69,3.46-7.19,5.16-10.8,1.61-3.41,4.64-3.32,7.69-3.23,3.3,1.85,6.84,2.28,10.59,2.28q328.65-.06,657.32,0C1298.25,283.06,1301.39,282.25,1304.54,283Z" transform="translate(-576 -156)"/><path class="cls-4" d="M630,335.77c.18,4.07,2.85,4.69,6.2,4.67,11.66-.05,23.32.17,35-.12,3.87-.09,4.66,1.1,4.62,4.74-.28,26.47-.61,52.95-.42,79.42.89,125.41,0,250.81.25,376.21,0,9.86-.6,9.67,10.14,9.92,20.64.48,41.3.09,61.95.14,18.31,0,36.63.19,54.94.3-1,3.67-1.68,7.5-3.18,11-2,4.66-6.42,5.81-11.07,5.81q-51.48,0-103-.12c-6,0-11.94.25-17.94-.44-3.79-.45-4.86-2.19-4.83-5.47,0-2,0-4,0-6,0-115.46.27-230.92,0-346.38-.1-35.64.35-71.28.21-106.92,0-4.21-1.21-5.3-5.31-5.19-11.33.28-22.66.14-34,.07-7.58-.05-9.18-2.85-5.64-9.69,1.37-2.66,2.92-5.24,4.14-8C623.59,336.11,626.08,334.63,630,335.77Z" transform="translate(-576 -156)"/><path class="cls-4" d="M858.86,640.83c26-37.86,59.4-66.55,103-82.56a11.64,11.64,0,0,1,8.59.16c43.35,15.74,76.47,44.43,102.43,81.8,27.79,40,43.49,84.54,48.32,133,.93,9.29,1.1,18.59,1.45,27.9.32,8.63,1.42,9.75,10,9.74l117.37-.17c0,4.05-2,7.64-2.83,11.48-.8,3.56-4.41,3.8-7,4.77-2.39.9-5.22.78-7.86.79q-56.44.12-112.88.13c-8.33,0-9.54-1.2-9.73-10-.35-17.14-1.34-34.25-4.7-51.1-14.1-70.65-46.87-129.67-107.36-171.22a174.71,174.71,0,0,0-40-20.09,12.4,12.4,0,0,0-9.05,0C914.45,587.88,887.2,609.65,864,637c-1.4,1.64-2.78,3.31-4.17,5C859,642,858.54,641.75,858.86,640.83Z" transform="translate(-576 -156)"/><path class="cls-2" d="M1304.54,283c-1.37,2-3.39,2.44-5.68,2.42-4.33,0-8.66.1-13,.1H646.05c-4.33,0-8.66-.17-13-.09-3.35.07-5.46-1.14-5.86-4.65,1.47-2.8,4-3.06,6.8-3,13.82,0,27.65-.1,41.47-.1H1286c4.33,0,8.66.14,13,.12C1302.62,277.73,1304.86,279,1304.54,283Z" transform="translate(-576 -156)"/><path class="cls-5" d="M1256.64,357.4c-.1-4.13,0-8.27-.37-12.37-.33-3.66.76-4.76,4.58-4.71,13.08.17,26.16-.1,39.24-.2-1.86,4.59-3.75,9.18-5.58,13.79-1.11,2.78-2.93,4-6.09,3.93C1277.83,357.56,1267.23,357.53,1256.64,357.4Z" transform="translate(-576 -156)"/><path class="cls-6" d="M858.86,640.83l.95,1.11c-2.62,3.49-4.5,7.59-8.36,10A55.79,55.79,0,0,1,858.86,640.83Z" transform="translate(-576 -156)"/><path class="cls-1" d="M1232.17,802.6c-12.31.07-24.63,0-36.94.3-4.24.1-3.45-2.47-3.47-4.86-.13-26.86-2.68-53.48-8.87-79.63-18-76.22-54.94-140.91-117.24-189.74a238.14,238.14,0,0,0-97.07-45.83,10.72,10.72,0,0,0-4.88-.09,246.86,246.86,0,0,0-74.18,29.78c-7.94,4.76-15.49,10-22.92,15.47-9.66,6.4-18.14,14.22-26.59,22.06-3.75,3.48-7.27,7.22-10.9,10.85-35.67,38.41-60.39,83.35-78.72,132.08-10,26.66-16.1,54.28-19.24,82.53-.77,6.93-1.64,13.89-1.42,20.92.06,2.19.62,4.8-2.08,6.17-12.49.07-25,0-37.47.27-3.82.07-3.29-2.27-3.34-4.55a384.37,384.37,0,0,1,20.63-132.47,411.24,411.24,0,0,1,34.52-75c2-3.38,4.33-6.53,6.51-9.78,4.7-4.79,7.68-10.91,12.23-15.82,15.79-21.23,34.49-39.59,55.22-56,38.13-30.09,80.87-50,128.84-58.28a47.6,47.6,0,0,1,16.41,0c49.51,8.55,93.59,29.28,132.8,60.34,56.82,45,95.5,102.78,119.07,171.05a395.52,395.52,0,0,1,19.26,89.18c.85,8.25,1.79,16.56,1.3,24.91C1233.51,798.6,1233.91,800.86,1232.17,802.6Z" transform="translate(-576 -156)"/><path class="cls-4" d="M1232.17,802.6a383.2,383.2,0,0,0-51.58-188c-28.41-49.5-66.15-90.4-114.46-121.09-33.07-21-69-35.08-107.74-41.35-11-1.78-21.47,1.79-31.89,4.36-61.68,15.18-111.81,49-153.81,95.84-4,4.46-7.82,9.08-11.73,13.62-.88.06-1.4-.19-1.06-1.2A331.61,331.61,0,0,1,846.11,481a289.81,289.81,0,0,1,113.83-45.77c9.84-1.67,19.19,1.18,28.51,3.38,71.74,16.91,128.8,56.66,174.25,113.68,42.72,53.6,68.26,114.82,78.44,182.55a414,414,0,0,1,4.15,62.73c0,4.52-1.37,5.89-5.64,5.29A68.9,68.9,0,0,0,1232.17,802.6Z" transform="translate(-576 -156)"/><path class="cls-1" d="M744.16,567.08c-.06-1.16-.19-2.32-.19-3.48V361c0-1.16.12-2.32.19-3.48,1.52-2.69,4.19-2.39,6.63-2.42q11.24-.15,22.46,0c7.15.09,8.72,1.65,8.75,9,.09,21.3,0,42.6,0,63.9,0,29.63-.08,59.25.07,88.87a16.24,16.24,0,0,1-5,12.35c-10.08,10.36-19,21.75-27.51,33.42C748.19,564.46,747.4,567.34,744.16,567.08Z" transform="translate(-576 -156)"/><path class="cls-1" d="M1174.84,554.51c-10.91-13.42-21.83-26.82-34.29-38.86a5,5,0,0,1-1.62-4q.12-77.1.18-154.19c1.3-2.17,3.45-2.43,5.65-2.45,8.32-.08,16.64-.18,25,0,5.11.13,6.83,2,7.21,7,.1,1.32.07,2.66.07,4q0,89.81,0,179.62C1177,548.72,1177.74,552.09,1174.84,554.51Z" transform="translate(-576 -156)"/><path class="cls-4" d="M1174.84,554.51c.07-2,.19-4,.19-6,0-61.94-.06-123.88.14-185.82,0-4.73-1.49-5.41-5.59-5.31-10.15.27-20.31.1-30.47.1-.06-4.65,0-9.32-.23-14-.14-2.56.9-3.06,3.17-3.05,14.32.07,28.63.15,43,0,3.55-.05,3,1.9,3,4.08q0,26.22,0,52.44v176.5Z" transform="translate(-576 -156)"/><path class="cls-1" d="M894.7,445.82a363.91,363.91,0,0,0-34.87,17.37c-.37-.61-.79-1-.79-1.35q0-52.17.11-104.34c1.3-2.16,3.44-2.42,5.65-2.45,8-.08,15.94-.15,23.91,0,5.91.12,8.23,2.31,8.26,8.21.17,25.57.1,51.14,0,76.72A7.46,7.46,0,0,1,894.7,445.82Z" transform="translate(-576 -156)"/><path class="cls-1" d="M1059.91,456.2c-11.07-4.95-21.91-10.42-33.38-14.42-1.64-.57-2.21-1.66-2.2-3.41q.21-40.44.34-80.89c1.25-2.26,3.46-2.39,5.63-2.42,8-.11,16-.16,23.94,0,5.84.12,7.69,2,7.72,8q.16,43.63,0,87.29C1062,452.5,1061.87,454.69,1059.91,456.2Z" transform="translate(-576 -156)"/><path class="cls-4" d="M744.16,567.08c10.9-14.29,21.79-28.58,34.45-41.4,1.34-1.35,1.45-2.85,1.45-4.55q0-79.92.07-159.85c0-3.23-1.08-3.88-4-3.84-10.65.14-21.31.06-32,.07,0-5.48-2-12.5.58-16,2.48-3.29,10-.87,15.24-.95,9.82-.15,19.65,0,29.47-.09,2.72,0,3.68.57,3.68,3.56q-.17,83.41-.08,166.82c0,1.66.05,3.19-1.35,4.57a368.81,368.81,0,0,0-47.54,57.82Z" transform="translate(-576 -156)"/><path class="cls-4" d="M1059.91,456.2c0-31.62,0-63.24.18-94.86,0-3.12-1-4-4-3.91-10.48.15-21,.05-31.45.05-1.74-17-1.74-17,14.94-17,10,0,20,.06,30,0,2.45,0,3.51.48,3.5,3.26-.08,39.62,0,79.24,0,119.94Z" transform="translate(-576 -156)"/><path class="cls-7" d="M894.7,445.82c0-27.66-.14-55.31.08-83,0-4.55-1.35-5.59-5.64-5.46-10,.31-20,.11-30,.11,0-5.47-2-12.49.69-16,2.51-3.3,10-.88,15.24-1,9.65-.15,19.3,0,28.94-.1,2.85,0,3.69.88,3.68,3.7q-.13,46.66,0,93.31c0,2.54-.67,3.94-3.21,4.7C901.15,443.17,898,444.58,894.7,445.82Z" transform="translate(-576 -156)"/><path class="cls-4" d="M727.65,802.61c1.44-60.46,19.11-116.31,47.83-169.08,13.75-25.27,29.89-48.77,49.54-69.81,1.24-1.33,2.61-2.54,3.92-3.81,1-.14,1.53.25,1.25,1.35-20,22.3-37.14,46.53-50.72,73.23a353.3,353.3,0,0,0-37.53,129.4,327.85,327.85,0,0,0-1.62,34.88c0,3.34-1,4.42-4.2,4.09C733.32,802.57,730.47,802.68,727.65,802.61Z" transform="translate(-576 -156)"/><path class="cls-8" d="M830.19,561.26l-1.25-1.35c10.53-11.85,22.69-21.87,35.35-31.33a6.38,6.38,0,0,1,2.31-.58A473.65,473.65,0,0,0,830.19,561.26Z" transform="translate(-576 -156)"/><path class="cls-9" d="M759.9,564.81,761,566c-4.07,5.08-6.87,11.21-12.45,15C752.07,575.47,755.5,569.8,759.9,564.81Z" transform="translate(-576 -156)"/></svg>